<svg xmlns="http://www.w3.org/2000/svg" xml:space="preserve" width="101" height="101" fill="#5b6ee8" stroke="#5b6ee8" viewBox="0 0 528.633 528.632"><path d="M264.317 326.235c-13.739 0-26.659-5.349-36.371-15.067L.692 83.914v356.863c0 16.897 13.703 30.601 30.6 30.601h466.044c16.896 0 30.6-13.703 30.6-30.601V83.92L300.693 311.167c-9.716 9.719-22.636 15.068-36.376 15.068z"/><path d="M.692 57.255H0l.698.697 240.229 240.234a33 33 0 0 0 23.391 9.688c8.464 0 16.933-3.231 23.39-9.688L527.936 57.953l.697-.697H.692z"/></svg>