<svg xmlns="http://www.w3.org/2000/svg" xml:space="preserve" width="800" height="800" fill="#5b6ee8" stroke="#5b6ee8" stroke-width="0" viewBox="-5.12 -5.12 42.24 42.24"><g stroke="none"><path d="M31 31.36H1v-.72h30zm0-7H1A.36.36 0 0 1 .64 24V1A.36.36 0 0 1 1 .64h30a.36.36 0 0 1 .36.36v23a.36.36 0 0 1-.36.36m-29.64-.72h29.28V1.36H1.36zm7.691-8.286v-.182c0-.476.266-.812.854-.812s.854.336.854.812v.182c0 .477-.266.812-.854.812s-.854-.336-.854-.812m3.947-6.584h1.121v8.349c0 .994-.49 1.68-1.569 1.68h-.728v-.98h1.176zm-.126-2.325v-.182c0-.378.21-.63.687-.63s.687.252.687.63v.182c0 .378-.21.63-.687.63s-.687-.252-.687-.63m2.94 8.306.798-.645c.561.701 1.232 1.106 2.144 1.106.952 0 1.513-.434 1.513-1.176 0-.561-.309-.995-1.261-1.135l-.574-.084c-1.331-.196-2.326-.743-2.326-2.087 0-1.429 1.107-2.129 2.578-2.129 1.163 0 1.934.434 2.521 1.163l-.742.672c-.322-.448-.938-.882-1.863-.882s-1.415.434-1.415 1.121c0 .7.49.98 1.387 1.121l.561.084c1.597.238 2.213.938 2.213 2.031 0 1.4-1.022 2.255-2.675 2.255-1.332 0-2.215-.56-2.859-1.415"/><path d="M0 0h32v32H0z" style="fill:none"/></g></svg>