<svg xmlns="http://www.w3.org/2000/svg" width="800" height="800" fill="#5b6ee8" viewBox="0 0 24 24"><path fill="none" d="M0 0h24v24H0z"/><path d="M14.448 16.24a22 22 0 0 1-1.747 2.175c1.672 1.623 3.228 2.383 4.09 1.884.864-.498.983-2.225.414-4.484-.853.19-1.78.334-2.757.425m-1.31.087a28 28 0 0 1-2.276 0q.567.739 1.138 1.364.57-.625 1.138-1.364m5.04-7.894c2.665.764 4.405 2.034 4.405 3.567s-1.74 2.803-4.405 3.567c.67 2.69.441 4.832-.886 5.598-1.328.767-3.298-.105-5.292-2.03-1.994 1.925-3.964 2.797-5.292 2.03-1.327-.766-1.557-2.908-.886-5.598-2.665-.764-4.405-2.034-4.405-3.567s1.74-2.803 4.405-3.567c-.67-2.69-.441-4.832.886-5.598 1.328-.767 3.298.105 5.292 2.03 1.994-1.925 3.964-2.797 5.292-2.03 1.327.766 1.557 2.908.886 5.598m-.973-.248c.57-2.26.45-3.986-.413-4.484-.863-.499-2.419.261-4.09 1.884a22 22 0 0 1 1.746 2.175c.978.09 1.904.234 2.757.425m-10.41 7.63c-.57 2.26-.45 3.986.413 4.484.863.499 2.419-.261 4.09-1.884a22 22 0 0 1-1.746-2.175 22 22 0 0 1-2.757-.425m4.067-8.142a28 28 0 0 1 2.276 0A21 21 0 0 0 12 6.31q-.57.625-1.138 1.364zm-1.31.087A22 22 0 0 1 11.3 5.585C9.627 3.962 8.07 3.202 7.209 3.701c-.864.498-.983 2.225-.414 4.484.853-.19 1.78-.334 2.757-.425m4.342 7.52A25.4 25.4 0 0 0 15.787 12a25.4 25.4 0 0 0-1.893-3.28 25.4 25.4 0 0 0-3.788 0A25.4 25.4 0 0 0 8.213 12a25.4 25.4 0 0 0 1.893 3.28 25.4 25.4 0 0 0 3.788 0m1.284-.131q.924-.121 1.75-.304a21 21 0 0 0-.612-1.667 28 28 0 0 1-1.138 1.97zM8.822 8.85q-.924.121-1.75.304.255.806.612 1.667a28 28 0 0 1 1.138-1.97zm-1.75 5.994q.826.182 1.75.304a28 28 0 0 1-1.138-1.97 20 20 0 0 0-.612 1.666m-.978-.245c.261-.834.6-1.708 1.01-2.6a22 22 0 0 1-1.01-2.6c-2.242.637-3.677 1.604-3.677 2.6s1.435 1.963 3.677 2.6m10.834-5.445a21 21 0 0 0-1.75-.304 28 28 0 0 1 1.138 1.97q.357-.86.612-1.666m.978.245c-.261.834-.6 1.708-1.01 2.6.41.892.749 1.766 1.01 2.6 2.242-.637 3.677-1.604 3.677-2.6s-1.435-1.963-3.677-2.6M12 13.88a1.88 1.88 0 1 1 0-3.76 1.88 1.88 0 0 1 0 3.76"/></svg>